HIERARCHY
ROOT Hips
{
	OFFSET -3.958830 18.904000 13.208200
	CHANNELS 6 Xposition Yposition Zposition Zrotation Yrotation Xrotation 
	JOINT LHipJoint
	{
		OFFSET 0.000000 0.000000 0.000000
		CHANNELS 3 Zrotation Yrotation Xrotation
		JOINT LeftUpLeg
		{
			OFFSET 1.800000 -1.400000 0.085000
			CHANNELS 3 Zrotation Yrotation Xrotation
			JOINT LeftLeg
			{
				OFFSET 2.215000 -6.000000 0.000000
				CHANNELS 3 Zrotation Yrotation Xrotation
				JOINT LeftFoot
				{
					OFFSET 2.500000 -6.900000 0.000000
					CHANNELS 3 Zrotation Yrotation Xrotation
					JOINT LeftToeBase
					{
						OFFSET 0.200000 -0.500000 1.950000
						CHANNELS 3 Zrotation Yrotation Xrotation
						End Site
						{
							OFFSET 0.000000 0.000000 0.000000
						}
					}
				}
			}
		}
	}
	JOINT RHipJoint
	{
		OFFSET 0.000000 0.000000 0.000000
		CHANNELS 3 Zrotation Yrotation Xrotation
		JOINT RightUpLeg
		{
			OFFSET -1.800000 -1.400000 0.085000
			CHANNELS 3 Zrotation Yrotation Xrotation
			JOINT RightLeg
			{
				OFFSET -2.215000 -6.000000 0.000000
				CHANNELS 3 Zrotation Yrotation Xrotation
				JOINT RightFoot
				{
					OFFSET -2.500000 -6.900000 0.000000
					CHANNELS 3 Zrotation Yrotation Xrotation
					JOINT RightToeBase
					{
						OFFSET -0.200000 -0.500000 1.950000
						CHANNELS 3 Zrotation Yrotation Xrotation
						End Site
						{
							OFFSET 0.000000 0.000000 0.000000
						}
					}
				}
			}
		}
	}
	JOINT LowerBack
	{
		OFFSET 0.000000 0.000000 0.000000
		CHANNELS 3 Zrotation Yrotation Xrotation
		JOINT Spine
		{
			OFFSET -0.087000 1.940000 -0.288900
			CHANNELS 3 Zrotation Yrotation Xrotation
			JOINT Spine1
			{
				OFFSET 0.000000 1.950000 0.060000
				CHANNELS 3 Zrotation Yrotation Xrotation
				JOINT Neck
				{
					OFFSET 0.000000 0.000000 0.000000
					CHANNELS 3 Zrotation Yrotation Xrotation
					JOINT Neck1
					{
						OFFSET 0.000000 1.600000 0.340000
						CHANNELS 3 Zrotation Yrotation Xrotation
						JOINT Head
						{
							OFFSET 0.000000 1.667000 -0.240000
							CHANNELS 3 Zrotation Yrotation Xrotation
							End Site
							{
								OFFSET 0.000000 0.000000 0.000000
							}
						}
					}
				}
				JOINT LeftShoulder
				{
					OFFSET 0.000000 0.000000 0.000000
					CHANNELS 3 Zrotation Yrotation Xrotation
					JOINT LeftArm
					{
						OFFSET 2.700000 1.550000 -0.730000
						CHANNELS 3 Zrotation Yrotation Xrotation
						JOINT LeftForeArm
						{
							OFFSET 5.450000 0.000000 0.000000
							CHANNELS 3 Zrotation Yrotation Xrotation
							JOINT LeftHand
							{
								OFFSET 3.450000 0.000000 0.000000
								CHANNELS 3 Zrotation Yrotation Xrotation
								JOINT LeftHandIndex1
								{
									OFFSET 0.750000 0.000000 0.000000
									CHANNELS 3 Zrotation Yrotation Xrotation
									End Site
									{
										OFFSET 0.000000 0.000000 0.000000
									}
								}
							}
						}
					}
				}
				JOINT RightShoulder
				{
					OFFSET 0.000000 0.000000 0.000000
					CHANNELS 3 Zrotation Yrotation Xrotation
					JOINT RightArm
					{
						OFFSET -2.700000 1.550000 -0.730000
						CHANNELS 3 Zrotation Yrotation Xrotation
						JOINT RightForeArm
						{
							OFFSET -5.450000 0.000000 0.000000
							CHANNELS 3 Zrotation Yrotation Xrotation
							JOINT RightHand
							{
								OFFSET -3.450000 0.000000 0.000000
								CHANNELS 3 Zrotation Yrotation Xrotation
								JOINT RightHandIndex1
								{
									OFFSET -0.750000 0.000000 0.000000
									CHANNELS 3 Zrotation Yrotation Xrotation
									End Site
									{
										OFFSET 0.000000 0.000000 0.000000
									}
								}
							}
						}
					}
				}
			}
		}
	}
}
MOTION
Frames: 14
Frame Time: 0.016667
-9.523140 16.281440 12.155860 1.911733 64.503516 -7.150433 -15.645744 13.495624 3.251803 6.223225 -4.479675 -18.594882 -5.518740 12.821554 46.248284 0.276326 9.205296 1.319172 0.176400 0.110970 0.253090 17.684882 -10.610665 2.176135 -28.333367 -0.217936 -6.425336 2.880442 -5.315044 9.258705 -0.313395 -4.538566 2.524491 0.236400 0.395440 0.174930 -3.778574 -3.099255 -7.455619 10.068136 2.017666 19.094110 -1.747037 4.491566 17.923148 0.538513 -6.798471 -16.788734 -13.496603 16.953112 19.466511 -4.977880 16.463880 -13.192500 0.170235 -20.307810 10.875376 -27.216110 -12.308479 -0.916100 28.160302 4.597922 -1.822527 -4.223163 3.033658 0.377770 0.245560 -0.014580 0.055350 -0.107857 24.156922 11.075479 32.300138 5.288516 -8.184353 -24.914954 16.666429 -5.294910 2.209248 -1.548952 -0.382070 0.338760 0.113810 -0.147950 
-9.401670 16.427890 11.905800 3.597571 67.045649 -6.428301 -15.670115 13.664666 3.107836 3.116278 -3.904699 -14.479076 -5.906288 11.449085 40.981385 0.170458 8.246955 1.718060 0.056950 -0.016250 0.185380 17.623414 -10.596188 2.389012 -27.286407 -0.216679 -2.647471 0.399498 -4.662572 5.286131 -0.352931 -4.713502 2.563875 0.160700 0.460410 0.187490 -3.749818 -3.331232 -7.421709 9.956305 1.540116 21.100122 -3.502775 4.391807 16.363027 1.623338 -6.361540 -16.654144 -12.538081 16.797427 19.002742 -6.860650 17.490470 -11.350200 3.015181 -17.504590 11.624948 -24.884114 -9.020022 -0.599156 26.366358 0.630230 -2.151476 -4.253427 2.989185 0.321460 0.321940 -0.066460 0.035480 -5.066315 20.974670 9.331065 35.495456 6.543827 -9.047319 -28.426638 15.683082 -5.861420 2.259857 -1.610678 -0.402840 0.320700 0.158820 -0.141120 
-9.262810 16.632810 11.571570 1.113223 67.605949 -8.849778 -15.654160 13.823421 3.215314 -1.490953 -3.380678 -11.144762 -4.873427 9.302064 35.184985 0.057911 6.923559 2.227139 0.016860 -0.089240 0.162040 17.592425 -10.750738 2.531502 -22.772438 -0.280101 -1.387398 -0.426834 -4.211093 3.739296 -0.390859 -4.426784 2.736626 0.062680 0.425870 0.151990 -4.108771 -3.131258 -7.507652 15.122889 -0.814197 23.639989 -8.891940 4.286553 10.501768 4.199721 -7.063048 -17.531534 -14.667378 17.755843 22.413602 -5.177150 17.937680 -10.179250 -0.913651 -15.060582 10.708986 -18.051595 -2.646626 -1.631074 25.748233 -4.498385 -2.466885 -4.095595 2.915991 0.402770 0.226990 -0.021250 0.048990 -5.782794 20.003367 9.560048 32.546728 5.764314 -7.299364 -25.179078 12.232326 -3.817605 2.431441 -1.483040 -0.401680 0.311770 0.142410 -0.126470 
-9.095360 16.755900 11.460090 1.242472 70.257010 -3.662032 -15.663179 13.926134 3.202662 0.904275 -2.799052 -12.986118 -7.972539 9.119671 28.233152 -0.087257 6.027057 2.532776 -0.016900 -0.140910 0.110770 17.524000 -10.636132 2.702420 -22.791800 0.212266 -4.310202 3.433663 -4.426703 3.744500 -0.301891 -4.251228 2.776882 0.013270 0.443910 0.139100 -3.771689 -3.520044 -7.588415 11.370454 1.187810 18.099075 -5.343505 4.461143 4.721891 3.311889 -6.053565 -16.272170 -12.463853 17.762072 24.032180 -2.182530 17.782270 -7.676330 -2.349379 -11.792651 8.672730 -12.821955 -2.940451 -0.892265 24.315939 -4.126607 -1.662437 -4.108641 2.926215 0.385650 0.215670 -0.060260 0.053840 -2.044489 16.600595 9.658117 27.064755 1.585427 -6.015851 -22.397118 13.775820 -2.868899 2.441070 -1.396997 -0.394090 0.265560 0.148640 -0.110980 
-8.943160 16.864600 11.284890 -1.636498 68.429144 -1.696904 -15.658000 13.785560 3.211199 1.822843 -2.304194 -15.395727 -9.794604 8.602794 22.524341 -0.103128 5.265795 2.839263 -0.173040 -0.267250 -0.018500 17.541862 -10.702062 2.677345 -20.397283 0.700685 -9.315132 6.426400 -4.729183 5.800393 -0.140989 -3.857822 2.962712 -0.105360 0.537900 0.168900 -3.672195 -3.085939 -7.503692 10.137170 2.857414 12.531673 -1.867782 4.463399 2.283025 3.417569 -5.452254 -14.066760 -10.507822 19.283723 24.105503 -4.611020 21.509370 -5.393140 -7.097905 -8.704446 6.195763 -2.147576 1.109561 -0.370931 17.564814 -7.420718 -0.866524 -4.141157 2.849750 0.311930 0.310220 -0.079390 0.072470 2.402250 13.644571 9.217237 16.552255 -0.660353 -4.982951 -20.226995 19.894576 -2.608100 2.358498 -1.278482 -0.382350 0.246920 0.180120 -0.060480 
-8.816660 16.997040 11.050160 -2.442077 72.062863 -0.603242 -15.662022 13.589649 3.206016 0.305916 -2.327675 -15.198394 -9.452474 7.410150 18.456678 -0.319420 4.713669 3.053934 -0.233940 -0.393140 -0.026950 17.597251 -10.787781 2.606157 -17.986360 0.629812 -9.793393 7.913244 -5.186332 7.483206 -0.082944 -3.877581 2.935244 -0.127890 0.573110 0.158190 -3.826280 -2.714209 -7.290231 10.121160 3.056819 9.243680 -1.125707 3.987193 3.071720 2.737594 -5.209710 -12.602964 -9.751178 17.588729 22.840769 -5.461480 19.777600 -5.184650 -8.826963 -7.704977 4.292945 5.180183 1.734770 0.020503 13.159409 -12.788883 -0.803864 -4.119198 2.891107 0.334500 0.332700 -0.154880 0.015430 5.073424 11.902049 9.183679 10.668489 -6.653237 -4.984580 -20.358319 24.051778 -2.640461 2.255710 -1.294717 -0.454740 0.264920 0.265090 -0.109810 
-8.719950 17.102750 10.808240 -6.234148 74.016408 -3.346594 -15.675485 13.507276 3.151251 -1.078520 -2.048192 -14.362217 -7.168648 5.882676 14.430882 -0.480906 4.115736 3.291742 -0.252650 -0.438090 -0.035910 17.637684 -10.890784 2.542959 -14.393476 0.751286 -10.774155 9.138113 -5.695415 10.353674 -0.037330 -3.905867 2.897353 -0.116800 0.631050 0.203100 -4.132041 -2.272608 -7.075830 12.067310 2.942629 7.598532 -1.556061 3.742124 5.219864 2.590912 -5.306503 -12.585273 -9.684114 17.673066 20.883597 -5.816070 19.550080 -4.007800 -7.739569 -7.039704 4.611565 5.617630 4.042062 0.314664 14.279961 -10.123253 -0.832239 -4.243418 2.937182 0.285610 0.398650 -0.212810 -0.001840 4.065673 11.113339 9.162801 7.210659 -4.760654 -3.358879 -18.921785 16.501118 -1.786384 2.360994 -1.319327 -0.467150 0.248030 0.312490 -0.116710 
-8.651710 17.208500 10.561370 -12.214868 76.003900 -8.352883 -15.682413 13.585522 3.228714 -1.105151 -1.965218 -14.765662 -7.058370 5.518599 12.537367 -0.475227 3.944845 3.382694 -0.355550 -0.571690 -0.107650 17.647158 -10.909992 2.507596 -9.439733 1.058245 -12.452968 7.631818 -5.541474 13.390792 0.065500 -3.647956 3.025672 -0.195900 0.686390 0.181250 -4.322876 -2.132310 -7.043928 14.941454 2.014838 7.564419 -2.215812 3.063751 5.551546 3.323837 -5.859712 -13.376165 -10.701751 18.129783 19.781032 -6.229180 20.387250 -0.718620 -7.866123 -6.857518 5.398508 5.191578 11.102047 0.365360 15.266143 -12.423941 -0.848486 -4.237822 2.999377 0.252050 0.431300 -0.281970 -0.012850 2.771997 11.435754 9.709116 2.488869 -5.158712 -2.301130 -16.122172 13.775430 -1.095816 2.446045 -1.282490 -0.499370 0.227690 0.352960 -0.110080 
-8.585650 17.306990 10.344460 -12.579352 77.344388 -8.904098 -15.649460 13.792004 3.390560 -1.569680 -1.858685 -14.971439 -7.510480 5.692960 12.721663 -0.151024 3.684575 3.481062 -0.369120 -0.497390 -0.115750 17.627671 -10.872474 2.648768 -6.205947 1.033047 -12.423625 6.677605 -5.190480 13.770491 0.036841 -3.354809 3.240318 -0.305170 0.539240 0.128070 -4.049612 -2.505015 -7.299630 14.614778 2.130366 9.637842 -2.497928 3.577969 4.240467 5.061905 -5.485703 -14.996169 -10.344759 16.142071 24.010627 -9.647550 22.237720 0.843300 -7.728636 -6.921056 6.018488 5.252410 13.965154 -0.119909 14.944383 -8.016296 -0.175454 -4.076994 2.910693 0.228990 0.328510 -0.132180 0.055630 -0.584997 12.288431 11.322767 3.004765 -5.321856 -1.773462 -13.313621 6.607199 -0.275289 2.797568 -1.141793 -0.371750 0.141630 0.173270 -0.021640 
-8.504900 17.357540 10.146710 -10.533836 78.888016 -6.058143 -15.655399 13.703970 3.428693 -2.425944 -1.996785 -15.874112 -7.824883 5.703193 12.490314 -0.133480 3.697217 3.511320 -0.457560 -0.578340 -0.162880 17.657488 -10.754552 2.751709 -3.788656 1.059438 -12.862996 6.107481 -4.691623 12.054233 0.112034 -3.176799 3.322541 -0.332710 0.630110 0.150950 -3.817302 -2.645279 -7.324681 12.864407 2.727387 10.216800 -1.823838 4.033983 4.326864 5.326173 -5.622311 -15.332057 -10.275022 15.767897 21.406283 -11.365130 22.679840 1.904200 -3.974353 -5.134977 6.459703 3.054920 14.744603 -0.147904 11.674213 -5.407785 -0.046598 -4.245894 2.851298 0.133630 0.425370 -0.195010 0.038130 -4.425588 11.080669 11.322689 6.311706 -4.658466 -2.119671 -14.685117 3.274514 -0.189258 2.894869 -1.158551 -0.385350 0.155020 0.221770 -0.002710 
-8.402230 17.360560 9.927940 -9.604895 80.934918 -3.719408 -15.639690 13.726751 3.519308 -3.511649 -2.345642 -17.554816 -7.300375 5.519590 12.889554 -0.139669 3.691153 3.521646 -0.474360 -0.541680 -0.299850 17.666443 -10.573424 2.971806 -2.006786 1.163429 -12.843449 6.600202 -4.138520 8.515204 0.210953 -3.220992 3.285600 -0.250460 0.818880 0.278090 -3.689314 -3.010369 -7.517323 12.523912 2.884918 12.465802 -4.334886 5.188338 -2.333425 5.604861 -5.053054 -15.033972 -8.846643 15.828138 19.448527 -7.564700 20.751980 7.423550 7.337620 0.175173 7.074851 -7.677324 8.536181 -0.769819 14.728987 -1.780932 0.120629 -4.705473 3.010835 -0.147060 0.652450 -0.369150 0.060030 -15.623643 6.222093 8.372365 20.792183 0.241531 -4.125428 -20.082721 4.275713 -0.792897 2.894314 -1.583018 -0.316610 0.053850 0.285410 0.078400 
-8.304880 17.366430 9.734910 4.115232 82.670912 10.526873 -15.560996 13.107318 3.354289 -4.577778 -2.465758 -17.531173 -7.776433 5.413951 12.237039 -0.132853 3.438575 3.607421 -0.373900 -0.372180 -0.289710 17.870029 -10.661975 2.967397 -2.250121 0.697268 -12.176941 6.824528 -3.815409 4.721597 0.096279 -3.154163 3.404466 -0.200670 0.736820 0.172000 -3.923989 -2.228332 -7.270692 9.980603 3.317331 7.985270 -2.910261 4.358153 4.981405 3.789726 -6.131421 -14.367703 -10.936530 16.168417 18.724135 -7.376400 19.519850 2.753480 -2.772856 -2.917113 5.902784 3.942221 18.461537 0.170511 11.104732 -7.054460 -0.040043 -4.273211 3.018969 -0.034790 0.512040 -0.248720 0.144610 -2.689857 8.948274 10.482543 4.468225 -7.936637 -2.027812 -18.104309 5.653270 -0.641945 2.771891 -1.378358 -0.305470 0.194610 0.197410 0.114320 
-8.221320 17.359960 9.514690 9.871090 84.338385 16.249148 -15.493142 13.133444 3.370019 -3.590184 -2.587014 -18.359393 -8.495801 5.615739 12.409273 -0.103096 3.453214 3.577717 -0.383730 -0.437640 -0.249270 17.920848 -10.500297 3.198983 -1.669045 0.574863 -10.488930 8.342209 -3.609498 1.230189 0.008804 -3.220555 3.352698 -0.268670 0.653000 0.149370 -3.699987 -2.516163 -7.519822 9.100170 3.285768 9.373461 -2.955539 4.487452 3.101192 4.243473 -6.410921 -14.739331 -11.819503 15.803270 21.656319 -6.708220 19.272360 3.912860 -3.853199 -2.591058 5.808651 4.395029 22.446043 0.113613 12.397717 -9.190287 -0.026203 -4.137193 3.046132 0.054840 0.411680 -0.206200 0.110060 -2.395184 9.267089 10.851380 3.017207 -8.626084 -2.076559 -18.539218 2.747006 -0.175577 2.916228 -1.322159 -0.305850 0.151760 0.190080 0.085790 
-8.140610 17.295900 9.300230 19.725912 84.701339 27.549322 -15.305760 12.939084 3.436727 -3.331098 -3.136229 -20.737372 -9.013475 5.561865 12.109748 -0.250954 3.503003 3.565827 -0.406580 -0.485740 -0.332100 18.111392 -10.484282 3.258619 -2.369961 0.919321 -11.326809 9.402580 -3.484673 0.320584 0.067248 -3.350383 3.269110 -0.209830 0.796030 0.173740 -3.632159 -2.159529 -7.555446 7.371931 3.773834 9.495770 -3.016598 4.910709 0.139166 3.050095 -6.265361 -13.959071 -11.157459 16.644724 18.723853 -2.928820 16.801750 5.470020 -0.409110 0.496928 5.668278 2.277379 26.607215 -0.270752 8.771875 -13.376489 -0.194704 -4.248152 3.206232 -0.014370 0.506330 -0.349630 0.097000 -3.430509 6.389696 9.514407 2.802663 -7.367011 -1.882613 -19.913609 4.319748 -0.500243 2.804400 -1.446978 -0.361390 0.179140 0.294070 0.088550 
